<svg xmlns="http://www.w3.org/2000/svg" width="current" height="current" viewBox="0 0 17.85 16.363">
  <g id="text" transform="translate(0 -1)">
    <g id="Group_7668" data-name="Group 7668" transform="translate(2.821 6.8)">
      <path id="Path_4051" data-name="Path 4051" d="M6.577,10.239H4.651A.621.621,0,0,1,4.651,9H6.577a.621.621,0,0,1,0,1.239Z" transform="translate(-4.073 -9)" fill="current"/>
    </g>
    <g id="Group_7669" data-name="Group 7669" transform="translate(6.533 6.8)">
      <path id="Path_4052" data-name="Path 4052" d="M19.323,10.24h-7.5a.7.7,0,0,1-.75-.62.7.7,0,0,1,.75-.62h7.5a.7.7,0,0,1,.75.62A.7.7,0,0,1,19.323,10.24Z" transform="translate(-11.073 -9)" fill="current"/>
    </g>
    <g id="Group_7670" data-name="Group 7670" transform="translate(2.821 9.7)">
      <path id="Path_4053" data-name="Path 4053" d="M6.577,14.24H4.651a.622.622,0,0,1,0-1.24H6.577a.622.622,0,0,1,0,1.24Z" transform="translate(-4.073 -13)" fill="current"/>
    </g>
    <g id="Group_7671" data-name="Group 7671" transform="translate(6.533 9.7)">
      <path id="Path_4054" data-name="Path 4054" d="M19.323,14.24h-7.5a.7.7,0,0,1-.75-.62.7.7,0,0,1,.75-.62h7.5a.7.7,0,0,1,.75.62A.7.7,0,0,1,19.323,14.24Z" transform="translate(-11.073 -13)" fill="current"/>
    </g>
    <g id="Group_7672" data-name="Group 7672" transform="translate(2.821 12.6)">
      <path id="Path_4055" data-name="Path 4055" d="M6.577,18.24H4.651a.622.622,0,0,1,0-1.24H6.577a.622.622,0,0,1,0,1.24Z" transform="translate(-4.073 -17)" fill="current"/>
    </g>
    <g id="Group_7673" data-name="Group 7673" transform="translate(6.533 12.6)">
      <path id="Path_4056" data-name="Path 4056" d="M19.323,18.24h-7.5a.631.631,0,1,1,0-1.24h7.5a.631.631,0,1,1,0,1.24Z" transform="translate(-11.073 -17)" fill="current"/>
    </g>
    <g id="Group_7674" data-name="Group 7674" transform="translate(0 1)">
      <path id="Path_4057" data-name="Path 4057" d="M15.8,17.363H2.045A2.047,2.047,0,0,1,0,15.317V3.045A2.047,2.047,0,0,1,2.045,1H15.8A2.047,2.047,0,0,1,17.85,3.045V15.317A2.047,2.047,0,0,1,15.8,17.363ZM2.045,2.116a.931.931,0,0,0-.93.93V15.317a.931.931,0,0,0,.93.93H15.8a.931.931,0,0,0,.93-.93V3.045a.931.931,0,0,0-.93-.93Z" transform="translate(0 -1)" fill="current"/>
    </g>
    <g id="Group_7675" data-name="Group 7675" transform="translate(0 3.538)">
      <path id="Path_4058" data-name="Path 4058" d="M17.292,6H.558C.25,6,0,5.664,0,5.25S.25,4.5.558,4.5H17.292c.308,0,.558.336.558.75S17.6,6,17.292,6Z" transform="translate(0 -4.5)" fill="current"/>
    </g>
  </g>
</svg>
