<svg xmlns="http://www.w3.org/2000/svg" width="current" height="current" viewBox="0 0 16.303 16.363">
  <g id="bank_3_" data-name="bank (3)" transform="translate(-0.926 0)">
    <g id="Group_7666" data-name="Group 7666" transform="translate(0.926 0)">
      <path id="Path_4049" data-name="Path 4049" d="M16.27,6.1a.96.96,0,0,0,.959-.959V3.9a.954.954,0,0,0-.6-.89L9.437.07a.955.955,0,0,0-.716,0L1.527,3.011a.954.954,0,0,0-.6.89V5.142a.96.96,0,0,0,.959.959H2.46v7.225H1.885a.96.96,0,0,0-.959.959V15.4a.96.96,0,0,0,.959.959H16.27a.96.96,0,0,0,.959-.959V14.285a.96.96,0,0,0-.959-.959h-.575V6.1h.575Zm0,8.184c0,1.144,0,1.119,0,1.119H1.885V14.285ZM3.419,13.326V6.1H4.506v7.225Zm2.046,0V6.1h2.11v7.225Zm3.069,0V6.1H9.621v7.225Zm2.046,0V6.1h2.11v7.225Zm3.069,0V6.1h1.087v7.225ZM1.885,5.142c0-1.338,0-1.241,0-1.243L9.078.959,16.267,3.9s0-.091,0,1.243H1.885Z" transform="translate(-0.926 0)" fill="current"/>
    </g>
    <g id="Group_7667" data-name="Group 7667" transform="translate(8.598 2.073)">
      <path id="Path_4050" data-name="Path 4050" d="M241.406,64.854a.48.48,0,0,0-.48.48v1.023a.48.48,0,1,0,.959,0V65.334A.48.48,0,0,0,241.406,64.854Z" transform="translate(-240.927 -64.854)" fill="current"/>
    </g>
  </g>
</svg>
