<svg id="dashboard_1_" data-name="dashboard (1)" xmlns="http://www.w3.org/2000/svg" width="current" height="current" viewBox="0 0 16.161 16.161">
  <path id="Path_99" data-name="Path 99" d="M6.229,5.387H1.178A1.18,1.18,0,0,1,0,4.209V1.178A1.18,1.18,0,0,1,1.178,0h5.05A1.18,1.18,0,0,1,7.407,1.178v3.03A1.18,1.18,0,0,1,6.229,5.387ZM1.178,1.01a.168.168,0,0,0-.168.168v3.03a.168.168,0,0,0,.168.168h5.05A.168.168,0,0,0,6.4,4.209V1.178a.168.168,0,0,0-.168-.168Zm0,0" transform="translate(0 0)" fill="current"/>
  <path id="Path_100" data-name="Path 100" d="M6.229,222.759H1.178A1.18,1.18,0,0,1,0,221.581v-7.07a1.18,1.18,0,0,1,1.178-1.178h5.05a1.18,1.18,0,0,1,1.178,1.178v7.07A1.18,1.18,0,0,1,6.229,222.759Zm-5.05-8.417a.168.168,0,0,0-.168.168v7.07a.168.168,0,0,0,.168.168h5.05a.168.168,0,0,0,.168-.168v-7.07a.168.168,0,0,0-.168-.168Zm0,0" transform="translate(0 -206.599)" fill="current"/>
  <path id="Path_101" data-name="Path 101" d="M283.561,346.719h-5.05a1.18,1.18,0,0,1-1.178-1.178v-3.03a1.18,1.18,0,0,1,1.178-1.178h5.05a1.18,1.18,0,0,1,1.178,1.178v3.03A1.18,1.18,0,0,1,283.561,346.719Zm-5.05-4.377a.168.168,0,0,0-.168.168v3.03a.168.168,0,0,0,.168.168h5.05a.168.168,0,0,0,.168-.168v-3.03a.168.168,0,0,0-.168-.168Zm0,0" transform="translate(-268.578 -330.558)" fill="current"/>
  <path id="Path_102" data-name="Path 102" d="M283.561,9.427h-5.05a1.18,1.18,0,0,1-1.178-1.178V1.178A1.18,1.18,0,0,1,278.511,0h5.05a1.18,1.18,0,0,1,1.178,1.178v7.07A1.18,1.18,0,0,1,283.561,9.427Zm-5.05-8.417a.168.168,0,0,0-.168.168v7.07a.168.168,0,0,0,.168.168h5.05a.168.168,0,0,0,.168-.168V1.178a.168.168,0,0,0-.168-.168Zm0,0" transform="translate(-268.578 0)" fill="current"/>
</svg>
