<svg id="help" xmlns="http://www.w3.org/2000/svg" width="current" height="current" viewBox="0 0 16.161 16.161">
  <path id="Path_4076" data-name="Path 4076" d="M16.161,10.937A5.236,5.236,0,0,0,12.335,5.9a6.171,6.171,0,1,0-11.48,3.4L.023,12.319l3.012-.833a6.148,6.148,0,0,0,2.869.849,5.225,5.225,0,0,0,7.692,3.1l2.543.7-.7-2.543A5.205,5.205,0,0,0,16.161,10.937ZM3.184,10.462l-1.8.5.5-1.8L1.766,8.98a5.222,5.222,0,1,1,1.6,1.6Zm11.6,4.318-1.338-.37-.179.116A4.278,4.278,0,0,1,6.882,12.3,6.182,6.182,0,0,0,12.3,6.882a4.279,4.279,0,0,1,2.226,6.381l-.116.179Zm0,0" fill="current"/>
  <path id="Path_4077" data-name="Path 4077" d="M180.5,271h.947v.947H180.5Zm0,0" transform="translate(-174.803 -262.446)" fill="current"/>
  <path id="Path_4078" data-name="Path 4078" d="M138.341,91.894a.937.937,0,0,1-.308.7l-1.112,1.018v1.155h.947v-.738l.8-.736a1.894,1.894,0,1,0-3.172-1.4h.947a.947.947,0,1,1,1.894,0Zm0,0" transform="translate(-131.223 -87.159)" fill="current"/>
</svg>
