<svg xmlns="http://www.w3.org/2000/svg" width="current" height="current" viewBox="0 0 16.161 16.161">
  <g id="discount" transform="translate(-0.001)">
    <g id="Group_7689" data-name="Group 7689" transform="translate(4.229 6.692)">
      <g id="Group_7688" data-name="Group 7688">
        <path id="Path_4061" data-name="Path 4061" d="M136.408,212.445a1.435,1.435,0,1,0,0,2.029A1.436,1.436,0,0,0,136.408,212.445Zm-.726,1.3a.408.408,0,1,1,0-.578A.406.406,0,0,1,135.682,213.748Z" transform="translate(-133.959 -212.025)" fill="current"/>
      </g>
    </g>
    <g id="Group_7691" data-name="Group 7691" transform="translate(9.07 6.606)">
      <g id="Group_7690" data-name="Group 7690">
        <path id="Path_4062" data-name="Path 4062" d="M289.77,209.716a1.435,1.435,0,1,0,.42,1.014A1.436,1.436,0,0,0,289.77,209.716Zm-.726,1.3a.408.408,0,1,1,.12-.289A.409.409,0,0,1,289.044,211.019Z" transform="translate(-287.321 -209.296)" fill="current"/>
      </g>
    </g>
    <g id="Group_7693" data-name="Group 7693" transform="translate(7.207 4.609)">
      <g id="Group_7692" data-name="Group 7692" transform="translate(0 0)">
        <rect id="Rectangle_3075" data-name="Rectangle 3075" width="1.026" height="6.871" transform="translate(0 0.109) rotate(-6.09)" fill="current"/>
      </g>
    </g>
    <g id="Group_7695" data-name="Group 7695" transform="translate(0.001)">
      <g id="Group_7694" data-name="Group 7694">
        <path id="Path_4063" data-name="Path 4063" d="M14.749,5.748a3.439,3.439,0,0,0-4.335-4.335L9,0,0,9l1.412,1.412a3.439,3.439,0,0,0,4.335,4.335l1.412,1.412,9-9ZM7.161,14.709,5.989,13.537l-.322.144A2.412,2.412,0,0,1,2.48,10.495l.144-.322L1.452,9,9,1.451l1.172,1.172.322-.144a2.412,2.412,0,0,1,3.187,3.187l-.144.322L14.71,7.16Z" transform="translate(-0.001)" fill="current"/>
      </g>
    </g>
  </g>
</svg>
