<svg xmlns="http://www.w3.org/2000/svg" width="current" height="current" viewBox="0 0 16.229 14.17">
  <g id="shop_2_" data-name="shop (2)" transform="translate(0 -31.05)">
    <g id="Group_7706" data-name="Group 7706" transform="translate(0 31.05)">
      <path id="Path_4079" data-name="Path 4079" d="M251.5,263.75h-2.205a1.1,1.1,0,0,0-1.094,1.094v1.691a1.1,1.1,0,0,0,1.094,1.094H251.5a1.1,1.1,0,0,0,1.094-1.094v-1.691A1.1,1.1,0,0,0,251.5,263.75Zm.3,2.786a.3.3,0,0,1-.3.3h-2.205a.3.3,0,0,1-.3-.3v-1.691a.3.3,0,0,1,.3-.3H251.5a.3.3,0,0,1,.3.3Z" transform="translate(-239.969 -256.033)" fill="current"/>
      <path id="Path_4080" data-name="Path 4080" d="M16.229,35.693a.369.369,0,0,0-.053-.2l-2.414-4.245a.4.4,0,0,0-.345-.2H2.809a.393.393,0,0,0-.345.2L.053,35.5a.4.4,0,0,0-.053.2,2.328,2.328,0,0,0,1.393,2.129v7a.4.4,0,0,0,.4.4H14.435a.4.4,0,0,0,.4-.4V37.871a.175.175,0,0,0,0-.043A2.334,2.334,0,0,0,16.229,35.693ZM3.041,31.849H13.185l1.887,3.319H1.157Zm8.509,4.112a1.529,1.529,0,0,1-3.011,0Zm-3.857,0a1.531,1.531,0,0,1-3.014,0Zm-6.871,0H3.837a1.531,1.531,0,0,1-3.014,0Zm5.863,8.463H4.4V40.13a.567.567,0,0,1,.567-.567H6.122a.567.567,0,0,1,.567.567v4.294Zm7.352,0H7.481V40.13a1.365,1.365,0,0,0-1.363-1.363H4.961A1.365,1.365,0,0,0,3.6,40.13v4.3H2.189v-6.41c.046,0,.093,0,.139,0a2.325,2.325,0,0,0,1.93-1.028,2.326,2.326,0,0,0,3.86,0,2.319,2.319,0,0,0,3.853,0,2.325,2.325,0,0,0,1.93,1.028c.046,0,.09,0,.136,0v6.407Zm-.136-7.2a1.529,1.529,0,0,1-1.506-1.26H15.41A1.538,1.538,0,0,1,13.9,37.225Z" transform="translate(0 -31.05)" fill="current"/>
    </g>
  </g>
</svg>
