<svg xmlns="http://www.w3.org/2000/svg" width="current" height="current" viewBox="0 0 15.087 16.161">
  <g id="paint-roller" transform="translate(-17.006)">
    <path id="Path_4048" data-name="Path 4048" d="M31.62,2.3H30.073V.473A.473.473,0,0,0,29.6,0H19.5a.473.473,0,0,0-.473.473V2.3H17.953V1.768a.473.473,0,0,0-.947,0V4.04a.473.473,0,1,0,.947,0V3.251h1.073v1.8a.473.473,0,0,0,.473.473H29.6a.473.473,0,0,0,.473-.473v-1.8h1.073V6.2L24.435,7.873a.473.473,0,0,0-.359.459V9.879H23.54a.473.473,0,0,0-.473.444c-.271,4.335-.253,4.047-.253,4.07a1.773,1.773,0,0,0,.5,1.238,1.7,1.7,0,0,0,2.466,0,1.773,1.773,0,0,0,.5-1.238c0-.023.017.265-.253-4.07a.473.473,0,0,0-.473-.444h-.537V8.7l6.712-1.678a.473.473,0,0,0,.359-.459V2.778A.474.474,0,0,0,31.62,2.3ZM29.126,4.577H19.973V.947h9.153Zm-3.788,9.829a.789.789,0,1,1-1.578,0l.224-3.58h1.13Z" fill="current"/>
  </g>
</svg>
